<?xml version="1.0" encoding="UTF-8" standalone="no"?>
<!-- Created with Inkscape (http://www.inkscape.org/) -->

<svg
   viewBox="0 0 99.940742 100"
   id="svg1"
   xmlns="http://www.w3.org/2000/svg"
   xmlns:svg="http://www.w3.org/2000/svg"><path
       id="path1"
       style="fill:#ffffff;stroke-width:0.351;stroke-dasharray:none"
       d="m 90.902344,7.2636719 c -0.608452,0 -1.213659,0.2765848 -1.626953,0.8652344 l -0.263672,0.375 -0.05664,36.6406247 -0.05859,36.802735 a 0.5128509,0.5128509 0 0 1 -0.371093,0.492187 l -0.910157,0.261719 c -1.848782,0.533569 -3.615104,1.568046 -5.054687,2.960937 -3.642103,3.523989 -4.65761,9.0241 -2.50586,13.580078 1.256629,2.660703 3.163947,4.565023 5.835938,5.828123 1.166949,0.55164 2.458298,0.91418 3.732422,1.04883 1.298285,0.13673 1.162763,0.13648 2.396484,0.008 2.829975,-0.29514 5.203385,-1.39777 7.222656,-3.35156 3.642103,-3.523985 4.657603,-9.024099 2.505863,-13.580078 -1.50415,-3.18478 -4.248287,-5.538216 -7.56055,-6.49414 L 93.277344,82.439453 A 0.5128509,0.5128509 0 0 1 92.90625,81.947266 l -0.05859,-36.802735 -0.05664,-36.6406247 -0.263672,-0.375 c -0.413651,-0.5891561 -1.016549,-0.8652344 -1.625,-0.8652344 z m -74.998047,0.00195 c -3.11487,0 -6.2247414,1.2032228 -8.5566408,3.613281 -1.0332049,1.067835 -1.6451915,1.950195 -2.296875,3.330078 -1.490975,3.156896 -1.4874388,6.869204 0.00781,10.035157 1.5017281,3.179666 4.2516562,5.537795 7.5585943,6.492187 L 13.527344,31 a 0.5128509,0.5128509 0 0 1 0.371094,0.492187 l 0.05859,36.800782 0.05664,36.640621 0.259766,0.36914 c 0.310471,0.44175 0.725315,0.72814 1.205078,0.84571 0.6703,0.16428 1.5973,-0.19396 2.050781,-0.83985 l 0.265625,-0.375 0.05664,-36.640621 0.05859,-36.800782 A 0.5128509,0.5128509 0 0 1 18.28125,31 l 0.908203,-0.263672 c 1.097231,-0.316665 2.597513,-1.035936 3.619141,-1.742187 0.935323,-0.646588 2.335592,-2.067543 2.974609,-3.015625 3.216437,-4.77208 2.672442,-10.968991 -1.324219,-15.09961 C 22.12699,8.4687492 19.019167,7.265625 15.904297,7.265625 Z m 24.605469,0.029297 c -0.704528,0.184661 -1.053899,0.4632901 -1.339844,1.0371094 a 0.5128509,0.5128509 0 0 1 0,0.00195 L 38.916016,8.8398438 V 32.839844 c 0,9.599051 -0.0092,15.632289 -0.03125,19.271484 -0.01103,1.819597 -0.02555,3.038776 -0.04492,3.8125 -0.0097,0.386862 -0.02021,0.661296 -0.0332,0.851563 -0.0065,0.09513 -0.01239,0.167351 -0.02344,0.238281 -0.0055,0.03547 -0.01085,0.06754 -0.0293,0.125 -0.0092,0.02873 -0.01844,0.06372 -0.05469,0.123047 -0.01812,0.02967 -0.04353,0.06786 -0.08984,0.111328 -0.02316,0.02173 -0.08744,0.06614 -0.08789,0.06641 -4.52e-4,2.71e-4 -0.132357,0.05652 -0.132812,0.05664 -2.71504,0.722589 -4.53562,1.766349 -6.19336,3.53125 -2.172737,2.313191 -3.240234,5.022474 -3.240234,8.232422 0,5.313476 3.514934,9.980714 8.630859,11.458984 l 0.958985,0.277344 a 0.5128509,0.5128509 0 0 1 0.371094,0.492187 v 11.615235 11.494144 l 0.238281,0.47851 c 0.276198,0.55426 0.606712,0.83678 1.210937,1.0293 1.001011,0.31893 2.222506,-0.40057 2.451172,-1.4668 -0.0079,0.0366 0.01098,-0.0817 0.01953,-0.23437 0.0086,-0.15269 0.01581,-0.36637 0.02344,-0.63672 0.01525,-0.54071 0.02886,-1.31005 0.03906,-2.30274 0.02041,-1.985364 0.0293,-4.866924 0.0293,-8.634762 V 81.492187 A 0.5128509,0.5128509 0 0 1 43.296875,81 l 0.908203,-0.267578 c 1.875145,-0.550457 3.494307,-1.484382 4.933594,-2.851563 1.418111,-1.347071 2.43132,-2.909132 3.048828,-4.689453 0.523787,-1.510104 0.64413,-2.304367 0.628906,-4.164062 -0.01157,-1.413902 -0.05148,-1.779858 -0.300781,-2.72461 -1.085891,-4.115118 -4.248468,-7.412817 -8.169922,-8.544922 l -0.988281,-0.285156 a 0.5128509,0.5128509 0 0 1 -0.371094,-0.490234 l -0.05859,-24.183594 c -0.02831,-11.683197 -0.044,-17.733867 -0.08008,-20.910156 -0.01804,-1.588145 -0.0419,-2.4599806 -0.07227,-2.9414064 -0.03037,-0.4814258 -0.04772,-0.4974797 -0.07227,-0.546875 C 42.30212,7.5933018 41.257858,7.0988421 40.509766,7.2949219 Z m 24.927734,0.00977 c -0.561098,0.1346057 -1.305269,0.8694529 -1.439453,1.4023438 0.01268,-0.050362 -0.03157,0.2761764 -0.04883,0.7558593 -0.01726,0.4796829 -0.0322,1.1771294 -0.04297,2.1230474 -0.02154,1.891834 -0.0293,4.781443 -0.0293,8.957031 v 11.414062 a 0.5128509,0.5128509 0 0 1 -0.371094,0.492188 l -0.908203,0.263672 c -3.049499,0.883749 -5.741301,3.052883 -7.257812,5.851562 -0.970903,1.791776 -1.500852,4.16567 -1.388672,6.226563 0.277194,5.092419 3.746457,9.516261 8.527344,10.896484 l 0.96875,0.279297 a 0.5128509,0.5128509 0 0 1 0.371093,0.490234 l 0.05859,24.181641 c 0.02831,11.683193 0.044,17.733866 0.08008,20.910158 0.01804,1.58814 0.0419,2.45998 0.07227,2.9414 0.03037,0.48143 0.04772,0.49749 0.07227,0.54688 0.20622,0.41505 0.957278,1.00958 1.296875,1.08594 0.658957,0.14844 0.408257,0.1523 0.9375,0.01 0.612643,-0.165 1.045925,-0.51584 1.310547,-1.04687 l 0.242188,-0.48828 V 80.597656 c 0,-9.599048 0.0092,-15.632289 0.03125,-19.271484 0.01103,-1.819598 0.02555,-3.038776 0.04492,-3.8125 0.0097,-0.386862 0.02021,-0.661296 0.0332,-0.851563 0.0065,-0.09513 0.01239,-0.167351 0.02344,-0.238281 0.0055,-0.03547 0.01085,-0.06754 0.0293,-0.125 0.0092,-0.02873 0.01845,-0.06372 0.05469,-0.123047 0.01812,-0.02967 0.04353,-0.06786 0.08984,-0.111328 0.02316,-0.02173 0.08744,-0.06614 0.08789,-0.06641 4.53e-4,-2.71e-4 0.132357,-0.05652 0.132813,-0.05664 0.03791,-0.01009 0.530194,-0.152032 1.011718,-0.294922 3.895787,-1.156048 7.030965,-4.446662 8.103516,-8.529297 0.272434,-1.037008 0.388548,-3.427582 0.212891,-4.628906 -0.675322,-4.61855 -4.036385,-8.472153 -8.519532,-9.767578 L 68.259766,32.441406 A 0.5128509,0.5128509 0 0 1 67.888672,31.949219 V 20.333984 8.8398438 L 67.634766,8.3339844 a 0.5128509,0.5128509 0 0 1 0,-0.00195 C 67.217619,7.4949258 66.346062,7.086727 65.4375,7.3046875 Z M 15.904297,11.210938 c 4.374891,0 8.007812,3.635037 8.007812,8.009765 -1e-6,3.71553 -2.704699,7.06967 -6.320312,7.826172 -0.508568,0.1064 -1.238062,0.18032 -1.75,0.175781 -4.361448,-0.03871 -7.9472657,-3.647382 -7.9472658,-8.001953 0,-4.374891 3.6348758,-8.009766 8.0097658,-8.009765 z m 49.978515,25.031249 c 2.270203,0.0026 4.020736,0.733626 5.642579,2.355469 1.64408,1.64408 2.362056,3.388124 2.347656,5.703125 -0.0063,1.016467 -0.08312,1.540011 -0.34375,2.347656 -0.414143,1.283354 -1.297397,2.645865 -2.292969,3.533204 -0.901133,0.803166 -2.306926,1.552776 -3.433594,1.818359 -1.087132,0.256246 -2.847,0.261098 -3.86914,-0.01172 -2.847783,-0.760097 -5.071447,-3.00184 -5.808594,-5.857422 -0.267922,-1.038154 -0.263814,-2.708571 -0.0059,-3.802734 0.839246,-3.559848 4.072197,-6.090102 7.763671,-6.085938 z M 40.927734,61.246094 c 2.121409,-0.0035 4.070092,0.782428 5.529297,2.238281 1.560336,1.556748 2.297322,3.204268 2.386719,5.341797 0.06842,1.635929 -0.158005,2.731192 -0.849609,4.060547 -0.970007,1.864464 -2.6762,3.323718 -4.619141,3.9375 -1.013942,0.320265 -2.55754,0.5073 -3.470703,0.363281 -1.859084,-0.293172 -3.28528,-1.018797 -4.623047,-2.349609 -1.620289,-1.611852 -2.354804,-3.364411 -2.357422,-5.638672 -0.0036,-3.111963 1.683235,-5.784188 4.523438,-7.19336 1.042158,-0.517069 2.158832,-0.757566 3.480468,-0.759765 z m 49.97461,24.96289 c 4.37489,0 8.007812,3.635038 8.007812,8.009766 0,3.715721 -2.706694,7.06967 -6.322265,7.82617 -2.688988,0.56262 -5.371831,-0.24124 -7.332032,-2.191404 -2.472273,-2.459615 -3.044182,-6.07591 -1.476562,-9.25586 1.302556,-2.642264 4.142099,-4.388672 7.123047,-4.388672 z"
       transform="matrix(1.0101989,0,0,1.0101989,-3.9749797,-7.3206081)" /></svg>
