<?xml version="1.0" encoding="UTF-8" standalone="no"?>
<!-- Created with Inkscape (http://www.inkscape.org/) -->

<svg
   viewBox="0 0 83.344894 100"
   xmlns="http://www.w3.org/2000/svg"
   xmlns:svg="http://www.w3.org/2000/svg">
   <path
       style="fill:#ffffff;stroke-width:0.463667"
       d="M 16.228362,99.91233 C 15.279215,99.77192 13.933271,99.29177 13.098178,98.79566 12.721012,98.5716 12.021814,97.99864 11.544404,97.52243 10.129108,96.11068 9.40302,94.61735 9.132063,92.56103 9.053573,91.96538 9.024132,76.71712 9.048563,49.31682 9.084583,8.92499 9.096413,6.95908 9.307834,6.25661 10.229673,3.19366 12.357508,1.08897 15.40661,0.22416 16.161794,0.00997 17.470252,0 44.842386,0 c 27.569886,0 28.677703,0.009 29.504213,0.22889 1.503872,0.40084 2.695483,1.1027 3.869169,2.27895 1.090597,1.09297 1.577225,1.86183 2.100932,3.3194 l 0.28651,0.79741 0.06134,28.08266 0.06134,28.08265 0.784576,0.16004 c 2.840606,0.57941 5.657956,2.2132 7.492859,4.34514 5.246703,6.09605 4.279073,15.08167 -2.143507,19.90496 -1.338092,1.0049 -3.200936,1.87867 -4.856279,2.27786 l -1.338608,0.32281 -1.9e-4,1.48319 c -1.39e-4,1.07409 -0.06692,1.74409 -0.242113,2.42909 -0.741001,2.89729 -3.005083,5.16993 -6.014688,6.03743 -0.768357,0.22147 -1.83002,0.23051 -29.136176,0.24796 -15.586321,0.01 -28.655851,-0.0288 -29.0434,-0.0861 z m 57.968571,-4.14622 c 0.92465,-0.45927 1.749106,-1.28091 2.195808,-2.18829 0.368513,-0.74855 0.400998,-0.91562 0.445723,-2.29223 l 0.04824,-1.48482 -1.377717,-0.33564 C 71.657066,88.52674 68.37808,85.89508 66.60134,82.31601 l -0.577883,-1.16409 -14.976299,-1.9e-4 c -14.013276,-1.8e-4 -15.003751,-0.014 -15.403228,-0.21469 -1.338118,-0.67229 -1.314089,-2.74439 0.03927,-3.3866 0.386537,-0.18343 1.731725,-0.20156 14.957125,-0.20156 h 14.532392 l 0.06793,-1.68683 c 0.07375,-1.83118 0.298806,-2.90712 0.946345,-4.52428 1.58986,-3.97049 5.347563,-7.18893 9.447722,-8.09193 0.506052,-0.11144 0.989573,-0.22202 1.074494,-0.24573 0.123623,-0.0345 0.148076,-5.57698 0.122677,-27.80258 L 76.800175,7.23804 76.4738,6.54182 C 76.036158,5.60825 75.250474,4.78328 74.351098,4.31298 L 73.610533,3.92572 H 44.903726 16.196925 L 15.518103,4.2591 c -0.866571,0.4256 -1.751845,1.31087 -2.177438,2.17744 l -0.333384,0.67882 -0.0372,42.50815 c -0.02722,31.10011 -2.37e-4,42.68068 0.100536,43.15101 0.284399,1.32736 1.602304,2.73709 2.95403,3.15986 0.453322,0.14178 5.132592,0.16528 29.063098,0.14599 l 28.522784,-0.023 z M 17.974518,85.90572 c -0.223062,-0.15181 -0.521055,-0.43181 -0.662205,-0.62222 -0.249421,-0.33646 -0.257747,-0.49341 -0.296097,-5.58188 -0.04466,-5.92604 -0.0092,-6.29406 0.662513,-6.88387 0.233318,-0.20486 0.547414,-0.40293 0.697992,-0.44018 0.150577,-0.0372 2.785622,-0.0518 5.855655,-0.0325 5.361007,0.0339 5.594899,0.045 5.910941,0.28063 0.180984,0.13495 0.44321,0.44609 0.582723,0.69144 0.24612,0.43281 0.253601,0.60969 0.251643,5.94991 -0.002,5.46943 -0.0037,5.50682 -0.276027,5.98178 -0.544915,0.95047 -0.41793,0.93286 -6.725251,0.93286 h -5.59632 z m 9.173582,-6.62465 -0.03278,-3.09763 -3.097636,-0.0328 -3.097635,-0.0328 v 3.13041 3.13041 h 3.130412 3.130411 z M 18.037105,66.44759 c -1.053911,-0.65099 -1.064537,-0.72428 -1.019603,-7.03162 0.03715,-5.21403 0.04509,-5.36768 0.294811,-5.70456 0.14115,-0.19041 0.439143,-0.47041 0.662205,-0.62222 l 0.405567,-0.27603 h 5.59632 c 6.356189,0 6.191683,-0.0241 6.724211,0.98297 0.278154,0.526 0.279085,0.54585 0.279085,5.94837 0,5.40253 -9.28e-4,5.42237 -0.279085,5.94837 -0.532458,1.00689 -0.369505,0.98304 -6.711683,0.98251 -5.221577,-4.2e-4 -5.607667,-0.0152 -5.951828,-0.22779 z m 9.139558,-6.70309 v -3.1283 h -3.128305 -3.128305 v 3.1283 3.12831 h 3.128305 3.128305 z m 8.467271,1.68664 c -1.328606,-0.66751 -1.331185,-2.65593 -0.0044,-3.361 0.410311,-0.21804 1.132789,-0.22716 18.007977,-0.22716 17.454272,0 17.584038,0.002 18.071153,0.25031 0.714511,0.36451 0.99548,0.87791 0.941634,1.72057 -0.05139,0.80439 -0.378,1.33875 -0.998127,1.63302 -0.381139,0.18086 -2.033918,0.19912 -18.005504,0.19895 -16.497676,-1.8e-4 -17.612261,-0.0134 -18.012774,-0.21469 z M 17.969871,46.8935 c -0.225619,-0.15204 -0.523611,-0.46948 -0.662205,-0.7054 -0.24235,-0.41255 -0.253303,-0.63546 -0.286311,-5.82683 l -0.03432,-5.39786 0.279678,-0.55106 c 0.153823,-0.30308 0.46726,-0.67572 0.696526,-0.82808 l 0.416848,-0.27702 h 5.596319 c 6.356189,0 6.191683,-0.0241 6.724211,0.98298 0.278208,0.5261 0.279085,0.54487 0.279085,5.97255 0,5.21483 -0.01043,5.46524 -0.247008,5.92897 -0.158987,0.31164 -0.419547,0.5722 -0.731185,0.73118 -0.464205,0.23682 -0.713868,0.24701 -6.052799,0.24701 h -5.568624 z m 9.206792,-6.6549 v -3.12831 h -3.128305 -3.128305 v 3.12831 3.1283 h 3.128305 3.128305 z m 8.462912,1.67436 c -1.327987,-0.70569 -1.327987,-2.64304 0,-3.34873 0.410314,-0.21804 1.132983,-0.22715 18.015219,-0.22715 15.973101,0 17.626283,0.0183 18.007418,0.19914 0.601951,0.28565 0.940016,0.82439 1.004387,1.60062 0.04581,0.55249 0.0051,0.73144 -0.256598,1.12684 -0.627486,0.9482 0.90824,0.87644 -18.755207,0.87644 -16.882236,0 -17.604905,-0.009 -18.015219,-0.22716 z M 18.023434,27.43036 c -0.209939,-0.12802 -0.513569,-0.41764 -0.674733,-0.6436 l -0.293025,-0.41085 v -5.66485 c 0,-5.55566 0.005,-5.67152 0.256637,-6.01125 0.14115,-0.19052 0.439143,-0.47062 0.662205,-0.62243 l 0.405567,-0.27603 h 5.59632 c 6.307321,0 6.180336,-0.0176 6.725251,0.93286 0.272187,0.47477 0.274022,0.51419 0.276027,5.92908 0.0019,5.20274 -0.0092,5.47423 -0.24335,5.958 -0.156379,0.32303 -0.418271,0.60404 -0.722106,0.7748 -0.470696,0.26455 -0.547261,0.26794 -6.041912,0.26749 -5.248396,-4.4e-4 -5.586902,-0.0137 -5.946881,-0.23322 z m 9.124666,-6.72834 0.03278,-3.09763 h -3.130412 -3.130412 v 3.13041 3.13041 l 3.097636,-0.0328 3.097635,-0.0328 z m 8.491475,1.70504 c -1.327987,-0.7057 -1.327987,-2.64304 0,-3.34873 0.410314,-0.21804 1.132983,-0.22716 18.015219,-0.22716 16.059413,0 17.624665,0.0175 18.012495,0.20155 1.353825,0.64244 1.374551,2.67617 0.03426,3.35995 -0.464451,0.23694 -0.808084,0.24154 -18.053979,0.24154 -16.875188,0 -17.597665,-0.009 -18.007977,-0.22715 z m 45.673538,63.29365 c 3.388462,-0.8772 6.136794,-3.71735 6.970023,-7.20289 0.361512,-1.51226 0.285216,-3.70563 -0.178656,-5.13599 -0.850945,-2.62391 -2.595322,-4.63784 -5.0477,-5.82769 -1.682848,-0.81649 -2.737765,-1.02939 -4.707804,-0.95009 -1.211326,0.0488 -1.762654,0.1317 -2.530232,0.3807 -2.848091,0.92386 -5.316011,3.33809 -6.246814,6.11091 -0.85178,2.53741 -0.708548,5.05924 0.420927,7.41107 1.353602,2.81849 3.928685,4.78999 7.052671,5.39955 1.117684,0.21809 3.029445,0.13495 4.267585,-0.18557 z m -4.844892,-4.49344 c -0.437493,-0.23747 -4.242992,-4.07021 -4.464411,-4.49635 -0.608188,-1.17055 0.307193,-2.67272 1.629401,-2.6739 0.816499,-9.3e-4 1.113283,0.18089 2.458034,1.50419 l 1.267361,1.24715 2.665071,-2.65199 c 1.465787,-1.4586 2.841743,-2.74022 3.057682,-2.84805 0.527106,-0.2632 1.050967,-0.2469 1.634678,0.0509 0.76098,0.38822 1.14957,1.17519 1.014815,2.05519 -0.06163,0.40243 -0.504457,0.89566 -3.641671,4.0561 -1.964331,1.97887 -3.720583,3.67644 -3.902785,3.77237 -0.424924,0.22372 -1.291787,0.21585 -1.718175,-0.0156 z"
       id="path6" />
</svg>
